<svg width="65" height="65" viewBox="0 0 65 65" fill="none" xmlns="http://www.w3.org/2000/svg">
<g clip-path="url(#clip0_82_1574)">
<path d="M45.6964 22.5164C45.4144 21.786 44.9825 21.1228 44.4286 20.5694C43.8746 20.0161 43.2109 19.5849 42.4802 19.3036C41.4741 18.931 40.4114 18.734 39.3386 18.7214C37.5544 18.6401 37.0196 18.6198 32.5 18.6198C27.9805 18.6198 27.4456 18.6401 25.6615 18.7214C24.5875 18.7336 23.5236 18.9306 22.5164 19.3036C21.786 19.5857 21.1228 20.0175 20.5694 20.5715C20.0161 21.1254 19.5849 21.7891 19.3037 22.5198C18.931 23.5259 18.7341 24.5886 18.7214 25.6615C18.6401 27.4456 18.6198 27.9805 18.6198 32.5C18.6198 37.0195 18.6401 37.5544 18.7214 39.3385C18.7337 40.4125 18.9306 41.4764 19.3037 42.4836C19.5857 43.214 20.0176 43.8772 20.5715 44.4306C21.1254 44.9839 21.7891 45.4151 22.5198 45.6964C23.5259 46.069 24.5886 46.266 25.6615 46.2787C27.4456 46.3599 27.9805 46.3768 32.5 46.3768C37.0196 46.3768 37.5544 46.3599 39.3386 46.2753C40.4123 46.2641 41.4762 46.0682 42.4836 45.6964C43.214 45.4143 43.8773 44.9825 44.4306 44.4285C44.9839 43.8746 45.4151 43.2109 45.6964 42.4802C46.069 41.4741 46.266 40.4114 46.2787 39.3385C46.3599 37.5544 46.3768 37.0195 46.3768 32.5C46.3768 27.9805 46.3599 27.4456 46.2753 25.6615C46.2641 24.5877 46.0682 23.5238 45.6964 22.5164ZM32.5 41.1938C30.7806 41.1938 29.0997 40.6839 27.67 39.7286C26.2404 38.7733 25.126 37.4155 24.468 35.827C23.81 34.2384 23.6379 32.4904 23.9733 30.8039C24.3088 29.1175 25.1368 27.5684 26.3526 26.3526C27.5684 25.1367 29.1175 24.3088 30.804 23.9733C32.4904 23.6378 34.2384 23.81 35.827 24.468C37.4156 25.126 38.7733 26.2403 39.7286 27.67C40.6839 29.0997 41.1938 30.7805 41.1938 32.5C41.1938 34.8057 40.2778 37.017 38.6474 38.6474C37.017 40.2778 34.8057 41.1938 32.5 41.1938ZM41.5357 25.4956C41.134 25.4956 40.7412 25.3764 40.4072 25.1532C40.0732 24.93 39.8128 24.6128 39.6591 24.2417C39.5053 23.8705 39.4651 23.4621 39.5435 23.068C39.6219 22.674 39.8153 22.3121 40.0994 22.028C40.3835 21.7439 40.7454 21.5505 41.1394 21.4721C41.5334 21.3937 41.9419 21.434 42.313 21.5877C42.6842 21.7414 43.0014 22.0018 43.2246 22.3358C43.4478 22.6699 43.5669 23.0626 43.5669 23.4643C43.5669 24.003 43.3529 24.5197 42.972 24.9006C42.5911 25.2816 42.0744 25.4956 41.5357 25.4956ZM38.1435 32.5C38.1435 33.6162 37.8125 34.7073 37.1924 35.6354C36.5723 36.5634 35.6909 37.2868 34.6597 37.7139C33.6285 38.1411 32.4938 38.2528 31.399 38.0351C30.3043 37.8173 29.2987 37.2798 28.5095 36.4906C27.7202 35.7013 27.1827 34.6957 26.965 33.601C26.7472 32.5063 26.859 31.3715 27.2861 30.3403C27.7133 29.3091 28.4366 28.4277 29.3647 27.8076C30.2927 27.1875 31.3838 26.8565 32.5 26.8565C33.9968 26.8565 35.4322 27.4511 36.4906 28.5095C37.5489 29.5678 38.1435 31.0033 38.1435 32.5ZM32.5 0C26.0721 0 19.7886 1.90609 14.444 5.47724C9.09939 9.04838 4.93378 14.1242 2.47393 20.0628C0.0140817 26.0014 -0.629527 32.5361 0.624493 38.8404C1.87851 45.1448 4.97384 50.9358 9.51904 55.481C14.0643 60.0262 19.8552 63.1215 26.1596 64.3755C32.464 65.6295 38.9986 64.9859 44.9372 62.5261C50.8758 60.0662 55.9516 55.9006 59.5228 50.556C63.0939 45.2114 65 38.9279 65 32.5C65 23.8805 61.5759 15.614 55.481 9.51903C49.3861 3.4241 41.1196 0 32.5 0ZM49.3255 39.4773C49.2969 40.8821 49.0302 42.2717 48.5367 43.5872C48.102 44.7115 47.4371 45.7325 46.5848 46.5848C45.7325 47.4371 44.7115 48.102 43.5873 48.5367C42.2728 49.0298 40.8843 49.2965 39.4807 49.3255C37.6729 49.4068 37.0974 49.4271 32.5 49.4271C27.9026 49.4271 27.3271 49.4068 25.5193 49.3255C24.1157 49.2965 22.7272 49.0298 21.4128 48.5367C20.2886 48.102 19.2676 47.4371 18.4152 46.5848C17.5629 45.7325 16.8981 44.7115 16.4633 43.5872C15.9702 42.2728 15.7035 40.8843 15.6745 39.4807C15.5932 37.6729 15.5729 37.0974 15.5729 32.5C15.5729 27.9026 15.5932 27.3271 15.6745 25.5193C15.7025 24.1159 15.968 22.7274 16.4599 21.4128C16.8947 20.2876 17.5599 19.2657 18.4128 18.4128C19.2657 17.5598 20.2876 16.8946 21.4128 16.4599C22.7274 15.968 24.1159 15.7024 25.5193 15.6745C27.3271 15.5932 27.9026 15.5729 32.5 15.5729C37.0974 15.5729 37.6729 15.5932 39.4807 15.6745C40.8841 15.7024 42.2726 15.968 43.5873 16.4599C44.7118 16.895 45.733 17.5604 46.5854 18.4133C47.4377 19.2663 48.1024 20.2879 48.5367 21.4128C49.0298 22.7272 49.2965 24.1157 49.3255 25.5193C49.4068 27.3271 49.4271 27.9026 49.4271 32.5C49.4271 37.0974 49.4068 37.6695 49.3255 39.4773Z" fill="#EA5B23"/>
</g>
<defs>
<clipPath id="clip0_82_1574">
<rect width="65" height="65" fill="white"/>
</clipPath>
</defs>
</svg>
