<svg width="65" height="65" viewBox="0 0 65 65" fill="none" xmlns="http://www.w3.org/2000/svg">
<g clip-path="url(#clip0_82_1572)">
<path d="M32.5 0C14.5488 0 0 14.5488 0 32.5C0 50.4512 14.5488 65 32.5 65C50.4512 65 65 50.4512 65 32.5C65 14.5488 50.4512 0 32.5 0ZM23.4102 46.0967H17.0752V25.8223H23.4102V46.0967ZM20.0713 23.2832H20.0205C17.7227 23.2832 16.2373 21.7344 16.2373 19.7666C16.2373 17.7607 17.7734 16.25 20.1094 16.25C22.4453 16.25 23.8799 17.7607 23.9307 19.7666C23.9434 21.7217 22.458 23.2832 20.0713 23.2832ZM48.75 46.0967H41.5645V35.6104C41.5645 32.8682 40.4473 30.9893 37.9717 30.9893C36.0801 30.9893 35.0264 32.2588 34.5439 33.4775C34.3662 33.9092 34.3916 34.5186 34.3916 35.1406V46.0967H27.2695C27.2695 46.0967 27.3584 27.5107 27.2695 25.8223H34.3916V29.0088C34.8105 27.6123 37.083 25.6318 40.7139 25.6318C45.2207 25.6318 48.75 28.5518 48.75 34.8232V46.0967Z" fill="#EA5B23"/>
</g>
<defs>
<clipPath id="clip0_82_1572">
<rect width="65" height="65" fill="white"/>
</clipPath>
</defs>
</svg>
